# xmcd CD database file
#
# Track frame offsets:
#	150
#	12750
#	32265
#	48793
#	64747
#	77573
#	90404
#	107306
#	128542
#	144094
#
# Disc length: 2198 seconds
#
# Revision: 0
# Processed by: cddbd v1.5.2PL0 Copyright (c) Steve Scherf et al.
# Submitted via: CDex 1.51
#
DISCID=5e08940a
DTITLE=Samuel Wesly - I'm A Pretender
DYEAR=2007
DGENRE=Country
TTITLE0=A Fool For Pretty Faces
TTITLE1=1994
TTITLE2=A Glimpse Of The Future
TTITLE3=Walking Home
TTITLE4=To Stay With You
TTITLE5=Just A Smile
TTITLE6=I'm A Pretender
TTITLE7=Make That Move
TTITLE8=Where My Love Belongs
TTITLE9=Missy
EXTD=YEAR: 2007
EXTT0=
EXTT1=
EXTT2=
EXTT3=
EXTT4=
EXTT5=
EXTT6=
EXTT7=
EXTT8=
EXTT9=
PLAYORDER=
